<?xml version="1.0" standalone="no"?>
<!DOCTYPE svg PUBLIC "-//W3C//DTD SVG 20010904//EN"
 "http://www.w3.org/TR/2001/REC-SVG-20010904/DTD/svg10.dtd">
<svg version="1.0" xmlns="http://www.w3.org/2000/svg"
 width="648.000000pt" height="648.000000pt" viewBox="0 0 648.000000 648.000000"
 preserveAspectRatio="xMidYMid meet">
<metadata>
Created by potrace 1.10, written by Peter Selinger 2001-2011
</metadata>
<g transform="translate(0.000000,648.000000) scale(0.100000,-0.100000)"
fill="#000000" stroke="none">
<path d="M895 5378 c-3 -7 -4 -971 -3 -2143 l3 -2130 163 -3 c120 -2 162 -6
162 -15 0 -6 -23 -32 -51 -57 -55 -50 -206 -191 -229 -215 -8 -9 -30 -30 -47
-47 -18 -18 -33 -38 -33 -45 0 -11 351 -13 2008 -11 l2007 3 5 190 5 190 355
5 355 5 0 2140 0 2140 -200 2 -200 3 -119 -115 c-75 -73 -113 -117 -105 -120
8 -3 97 -6 199 -7 l185 -3 0 -1885 0 -1885 -235 0 -235 0 -3 1603 -2 1602 -24
0 c-17 0 -36 -14 -60 -42 -19 -24 -49 -52 -65 -63 -17 -11 -31 -26 -31 -32 0
-7 -4 -13 -9 -13 -7 0 -182 -167 -306 -292 -5 -5 -23 -22 -39 -36 -16 -15 -46
-43 -66 -63 -20 -20 -49 -44 -63 -54 -15 -9 -27 -22 -27 -27 0 -9 -39 -49
-126 -130 -16 -14 -34 -31 -41 -38 -66 -67 -146 -140 -154 -140 -5 0 -9 -7 -9
-15 0 -8 -4 -15 -9 -15 -13 0 -141 -128 -141 -141 0 -5 -4 -9 -9 -9 -6 0 -39
-29 -75 -65 -36 -36 -69 -65 -75 -65 -5 0 -12 -8 -16 -18 -3 -11 -26 -33 -50
-51 -25 -18 -45 -38 -45 -46 0 -7 -20 -25 -45 -39 -25 -15 -45 -33 -45 -41 0
-7 -13 -23 -30 -35 -16 -12 -30 -28 -30 -36 0 -8 -8 -18 -17 -21 -30 -11 -73
-46 -73 -59 0 -6 -16 -24 -36 -39 -68 -52 -294 -272 -294 -286 0 -5 -4 -9 -9
-9 -6 0 -50 -40 -98 -88 -49 -48 -106 -101 -126 -116 -20 -16 -37 -32 -37 -37
0 -12 -65 -77 -113 -113 -20 -16 -37 -34 -37 -41 0 -7 -20 -25 -45 -39 -25
-15 -45 -33 -45 -40 0 -8 -17 -26 -37 -42 -21 -16 -104 -95 -185 -176 -81 -82
-150 -148 -153 -148 -4 0 -39 -33 -79 -73 -39 -40 -88 -85 -109 -101 -20 -16
-37 -32 -37 -37 0 -12 -65 -77 -113 -113 -20 -16 -37 -34 -37 -42 0 -7 -20
-25 -45 -40 -25 -14 -45 -30 -45 -35 0 -6 -79 -8 -192 -7 l-193 3 0 1885 0
1885 220 5 220 5 0 115 0 115 -338 3 c-265 2 -339 0 -342 -10z m2933 -2995 l3
-62 52 -3 52 -3 0 -135 0 -135 -52 -3 -52 -3 -3 -62 -3 -62 -57 -3 -57 -3 -3
-67 -3 -67 -50 -5 -50 -5 -5 -60 -5 -60 -50 -5 -50 -5 0 -60 0 -60 220 -5 220
-5 0 -65 0 -65 -280 0 -280 0 0 130 0 130 50 5 50 5 5 65 5 65 52 3 52 3 3 62
3 62 57 3 57 3 3 67 3 67 50 5 50 5 0 125 0 125 -160 0 -160 0 -5 -60 -5 -60
-55 0 -55 0 -3 44 c-6 77 2 89 56 93 l47 3 3 50 c4 81 -7 76 179 73 l168 -3 3
-62z"/>
<path d="M2467 5324 c-4 -4 -7 -30 -7 -58 0 -28 -4 -56 -8 -63 -5 -8 -43 -13
-107 -15 l-100 -3 -3 -62 -3 -62 108 -3 108 -3 5 -400 5 -400 50 0 50 0 0 535
0 535 -45 3 c-25 2 -49 0 -53 -4z"/>
<path d="M2807 5324 c-12 -12 -8 -99 5 -112 14 -14 285 -17 306 -3 9 5 12 25
10 62 l-3 54 -156 3 c-85 1 -158 -1 -162 -4z"/>
<path d="M2695 5177 c-3 -6 -4 -185 -3 -397 l3 -385 33 -3 c64 -6 62 -18 62
397 0 280 -3 380 -12 389 -16 16 -77 15 -83 -1z"/>
<path d="M3145 5177 c-3 -6 -4 -185 -3 -397 l3 -385 33 -3 c64 -6 62 -18 62
397 0 280 -3 380 -12 389 -16 16 -77 15 -83 -1z"/>
<path d="M2811 4366 c-7 -8 -11 -36 -9 -63 l3 -48 160 0 160 0 3 54 c2 37 -1
57 -10 62 -7 5 -77 9 -154 9 -110 0 -144 -3 -153 -14z"/>
</g>
</svg>
