<?xml version="1.0" encoding="iso-8859-1"?>
<!-- Generator: Adobe Illustrator 19.0.0, SVG Export Plug-In . SVG Version: 6.00 Build 0)  -->
<svg version="1.1" id="Capa_1" xmlns="http://www.w3.org/2000/svg" xmlns:xlink="http://www.w3.org/1999/xlink" x="0px" y="0px"
	 viewBox="0 0 512 512" style="enable-background:new 0 0 512 512;" xml:space="preserve">
<g>
	<g>
		<path d="M492,54H20C8.972,54,0,62.972,0,74v364c0,11.028,8.972,20,20,20h472c11.028,0,20-8.972,20-20V74
			C512,62.972,503.028,54,492,54z M20,74h472l0.001,48H20V74z M451.013,298c0,0-0.004,0-0.013,0h-30V142h30.001L451.013,298z
			 M361.013,298c0,0-0.004,0-0.013,0h-30V142h30.001L361.013,298z M181.013,298c0,0-0.004,0-0.013,0h-30V142h30.001L181.013,298z
			 M91.013,298c0,0-0.004,0-0.013,0H61V142h30.001L91.013,298z M66,438H20V142h21v156c0,11.028,8.972,20,20,20h5V438z M246,438h-70
			v-46c0-5.523-4.478-10-10-10c-5.522,0-10,4.477-10,10v46H86V318h5c11.028,0,20-8.972,20-20V142h20v156c0,11.028,8.972,20,20,20h30
			c11.028,0,20-8.972,20-20V142h45V438z M336,438h-70V142h45v156c0,11.028,8.972,20,20,20h5V438z M492,438H356V318h5
			c11.028,0,20-8.972,20-20V142h20v156c0,11.028,8.972,20,20,20h5v48c0,5.523,4.478,10,10,10c5.522,0,10-4.477,10-10v-48h5
			c11.028,0,20-8.972,20-20V142h21.002l0.01,296C492.013,438,492.009,438,492,438z"/>
	</g>
</g>
<g>
	<g>
		<path d="M353.069,90.93C351.21,89.07,348.63,88,346,88s-5.21,1.07-7.07,2.93C337.07,92.79,336,95.37,336,98s1.069,5.21,2.93,7.07
			c1.861,1.86,4.44,2.93,7.07,2.93s5.21-1.07,7.069-2.93c1.86-1.86,2.931-4.44,2.931-7.07S354.93,92.79,353.069,90.93z"/>
	</g>
</g>
<g>
	<g>
		<path d="M443.069,90.93C441.21,89.07,438.63,88,436,88s-5.21,1.07-7.07,2.93C427.07,92.79,426,95.37,426,98s1.069,5.21,2.93,7.07
			c1.861,1.86,4.44,2.93,7.07,2.93s5.21-1.07,7.069-2.93c1.86-1.86,2.931-4.44,2.931-7.07S444.93,92.79,443.069,90.93z"/>
	</g>
</g>
<g>
	<g>
		<path d="M398.069,90.93C396.21,89.07,393.63,88,391,88s-5.21,1.07-7.07,2.93C382.07,92.79,381,95.37,381,98s1.069,5.21,2.93,7.07
			c1.861,1.86,4.44,2.93,7.07,2.93s5.21-1.07,7.069-2.93c1.86-1.86,2.931-4.44,2.931-7.07S399.93,92.79,398.069,90.93z"/>
	</g>
</g>
<g>
	<g>
		<path d="M68,88H51c-5.522,0-10,4.477-10,10s4.478,10,10,10h17c5.522,0,10-4.477,10-10S73.522,88,68,88z"/>
	</g>
</g>
<g>
	<g>
		<path d="M118,88h-17c-5.522,0-10,4.477-10,10s4.478,10,10,10h17c5.522,0,10-4.477,10-10S123.522,88,118,88z"/>
	</g>
</g>
<g>
	<g>
		<path d="M168,88h-17c-5.522,0-10,4.477-10,10s4.478,10,10,10h17c5.522,0,10-4.477,10-10S173.522,88,168,88z"/>
	</g>
</g>
<g>
	<g>
		<path d="M218,88h-17c-5.522,0-10,4.477-10,10s4.478,10,10,10h17c5.522,0,10-4.477,10-10S223.522,88,218,88z"/>
	</g>
</g>
<g>
	<g>
		<path d="M173.069,341.59c-1.859-1.86-4.439-2.93-7.069-2.93s-5.21,1.07-7.07,2.93s-2.93,4.43-2.93,7.07
			c0,2.63,1.069,5.21,2.93,7.07c1.86,1.86,4.44,2.93,7.07,2.93s5.21-1.07,7.069-2.93c1.86-1.86,2.931-4.44,2.931-7.07
			S174.93,343.45,173.069,341.59z"/>
	</g>
</g>
<g>
	<g>
		<path d="M443.069,402.93C441.21,401.07,438.63,400,436,400s-5.21,1.07-7.07,2.93c-1.86,1.86-2.93,4.44-2.93,7.07
			s1.069,5.21,2.93,7.07c1.861,1.86,4.44,2.93,7.07,2.93s5.21-1.07,7.069-2.93c1.86-1.86,2.931-4.44,2.931-7.07
			S444.93,404.79,443.069,402.93z"/>
	</g>
</g>
<g>
</g>
<g>
</g>
<g>
</g>
<g>
</g>
<g>
</g>
<g>
</g>
<g>
</g>
<g>
</g>
<g>
</g>
<g>
</g>
<g>
</g>
<g>
</g>
<g>
</g>
<g>
</g>
<g>
</g>
</svg>
